<svg aria-hidden="true" style="position: absolute; width: 0; height: 0; overflow: hidden;" version="1.1" xmlns="http://www.w3.org/2000/svg" xmlns:xlink="http://www.w3.org/1999/xlink">
<defs>
<symbol fill="none" xmlns="http://www.w3.org/2000/svg" viewBox="0 0 12 12" id="icon-search">
  <path d="M5.5 9.5a4 4 0 100-8 4 4 0 000 8zm5 1L8.325 8.325" stroke="#fff" stroke-linecap="round" stroke-linejoin="round"></path>
  <path d="M5.5 9.5a4 4 0 100-8 4 4 0 000 8zm5 1L8.325 8.325" stroke-linecap="round" stroke-linejoin="round"></path>
</symbol>
<symbol id="icon-heart" viewBox="0 0 32 32">
<path d="M16 30.583l-2.24-2.24c-8.32-7.36-13.76-12.32-13.76-18.4 0-4.96 3.84-8.8 8.8-8.8 2.72 0 5.44 1.28 7.2 3.36 1.76-2.080 4.48-3.36 7.2-3.36 4.96 0 8.8 3.84 8.8 8.8 0 6.080-5.44 11.040-13.76 18.4l-2.24 2.24z"></path>
</symbol>
<symbol id="icon-close" viewBox="0 0 32 32">
<path d="M26.667 7.303l-1.97-1.97-7.808 7.808-7.808-7.808-1.97 1.97 7.808 7.808-7.808 7.808 1.97 1.97 7.808-7.808 7.808 7.808 1.97-1.97-7.808-7.808 7.808-7.808z"></path>
</symbol>
<symbol id="right-arrow" viewBox="0 0 32 32">
<path d="M24.301 14.971l-14.545-14.545c-0.568-0.568-1.489-0.568-2.057 0s-0.568 1.489 0 2.057l13.517 13.517-13.517 13.517c-0.568 0.568-0.568 1.489 0 2.057 0.284 0.284 0.656 0.426 1.028 0.426s0.745-0.142 1.029-0.426l14.545-14.546c0.273-0.273 0.426-0.643 0.426-1.028s-0.153-0.756-0.426-1.029z"></path>
</symbol>
<symbol id="left-arrow" viewBox="0 0 32 32">
<path d="M10.784 16l13.517-13.517c0.568-0.568 0.568-1.489 0-2.057s-1.489-0.568-2.057 0l-14.545 14.546c-0.273 0.273-0.426 0.643-0.426 1.028s0.153 0.756 0.426 1.029l14.545 14.545c0.284 0.284 0.656 0.426 1.028 0.426s0.745-0.142 1.029-0.426c0.568-0.568 0.568-1.489 0-2.057l-13.517-13.517z"></path>
</symbol>
<symbol id="double-right-arrow" viewBox="0 0 32 32">
<path d="M16 27v-10l-10 10v-22l10 10v-10l11 11z"></path>
</symbol>
<symbol id="double-left-arrow" viewBox="0 0 32 32">
<path d="M18 5v10l10-10v22l-10-10v10l-11-11z"></path>
</symbol>
<symbol id="icon-arrow-right" viewBox="0 0 32 32">
<path d="M19.414 27.414l10-10c0.781-0.781 0.781-2.047 0-2.828l-10-10c-0.781-0.781-2.047-0.781-2.828 0s-0.781 2.047 0 2.828l6.586 6.586h-19.172c-1.105 0-2 0.895-2 2s0.895 2 2 2h19.172l-6.586 6.586c-0.39 0.39-0.586 0.902-0.586 1.414s0.195 1.024 0.586 1.414c0.781 0.781 2.047 0.781 2.828 0z"></path>
</symbol>
<symbol id="icon-arrow-left" viewBox="0 0 32 32">
<path d="M12.586 27.414l-10-10c-0.781-0.781-0.781-2.047 0-2.828l10-10c0.781-0.781 2.047-0.781 2.828 0s0.781 2.047 0 2.828l-6.586 6.586h19.172c1.105 0 2 0.895 2 2s-0.895 2-2 2h-19.172l6.586 6.586c0.39 0.39 0.586 0.902 0.586 1.414s-0.195 1.024-0.586 1.414c-0.781 0.781-2.047 0.781-2.828 0z"></path>
</symbol>
<symbol id="dots" viewBox="0 0 107 32">
<path d="M17.25 5.333c2.833 0 5.021 0.813 6.562 2.438 1.542 1.583 2.313 3.583 2.313 6 0 2.375-0.771 4.354-2.313 5.938-1.542 1.542-3.729 2.312-6.562 2.312-2.708 0-4.854-0.771-6.438-2.312s-2.375-3.521-2.375-5.938c0-2.417 0.771-4.417 2.312-6 1.542-1.625 3.708-2.438 6.5-2.438zM53 5.333c2.833 0 5.021 0.813 6.562 2.438 1.542 1.583 2.313 3.583 2.313 6 0 2.375-0.771 4.354-2.313 5.938-1.542 1.542-3.729 2.312-6.562 2.312-2.708 0-4.854-0.771-6.438-2.312s-2.375-3.521-2.375-5.938c0-2.417 0.771-4.417 2.313-6 1.542-1.625 3.708-2.438 6.5-2.438zM88.75 5.333c2.833 0 5.021 0.813 6.563 2.438 1.542 1.583 2.312 3.583 2.312 6 0 2.375-0.771 4.354-2.312 5.938-1.542 1.542-3.729 2.312-6.563 2.312-2.708 0-4.854-0.771-6.437-2.312s-2.375-3.521-2.375-5.938c0-2.417 0.771-4.417 2.313-6 1.542-1.625 3.708-2.438 6.5-2.438z"></path>
</symbol>
<symbol id="icon-up-vote-arrow" viewBox="0 0 32 32">
<path d="M16 0c4.418 0 8.418 1.791 11.313 4.687s4.687 6.895 4.687 11.313c0 4.418-1.791 8.418-4.687 11.313s-6.895 4.687-11.313 4.687-8.418-1.791-11.313-4.687c-2.896-2.895-4.687-6.896-4.687-11.313s1.791-8.418 4.687-11.313c2.895-2.896 6.895-4.687 11.313-4.687zM19.338 17.292v3.773c0 0.296-0.248 0.545-0.544 0.545h-5.588c-0.296 0-0.544-0.245-0.544-0.545v-3.773h-2.716c-0.281-0.001-0.563-0.098-0.791-0.296-0.501-0.437-0.554-1.198-0.117-1.699l6.211-7.129c0.043-0.048 0.089-0.094 0.141-0.136 0.512-0.424 1.271-0.352 1.695 0.16l5.861 7.083c0.196 0.214 0.316 0.5 0.316 0.813 0 0.666-0.54 1.205-1.206 1.205h-2.716zM25.382 6.618c-2.401-2.401-5.718-3.886-9.382-3.886s-6.981 1.486-9.382 3.886c-2.401 2.401-3.886 5.718-3.886 9.382s1.486 6.981 3.886 9.382c2.401 2.401 5.718 3.886 9.382 3.886s6.981-1.486 9.382-3.886c2.401-2.401 3.886-5.718 3.886-9.382s-1.486-6.981-3.886-9.382z"></path>
</symbol>
<symbol id="icon-up-arrow" viewBox="0 0 30 32">
<path d="M6.495 17.677c-0.678 0.625-1.587 1.009-2.586 1.009-2.108 0-3.818-1.709-3.818-3.818 0-1.019 0.4-1.945 1.051-2.63l-0.002 0.002 11.315-11.143c0.689-0.678 1.634-1.096 2.677-1.096s1.989 0.418 2.678 1.096l-0-0 11.096 10.922c0.665 0.686 1.075 1.623 1.075 2.655 0 2.108-1.709 3.818-3.818 3.818-1.009 0-1.926-0.391-2.608-1.030l0.002 0.002-4.688-4.607-0.076 15.409c-0.026 5.021-7.661 4.948-7.638-0.065l0.078-15.18-4.74 4.656z"></path>
</symbol>
<symbol id="icon-double-arrow-top" viewBox="0 0 32 32">
<path d="M28.334 17.587c0.424 0.403 0.973 0.601 1.522 0.593s1.093-0.219 1.506-0.635l0.031-0.031c0.39-0.411 0.58-0.937 0.572-1.459s-0.213-1.043-0.617-1.444c-4.592-4.594-9.262-9.139-13.89-13.705-0.013-0.018-0.026-0.034-0.042-0.049-0.424-0.406-0.978-0.604-1.527-0.596s-1.095 0.221-1.509 0.637l-0.068 0.070c-4.566 4.55-9.145 9.087-13.7 13.646-0.401 0.401-0.606 0.918-0.614 1.441s0.182 1.048 0.575 1.459l0.039 0.039c0.411 0.408 0.952 0.619 1.499 0.627s1.098-0.19 1.522-0.593l12.298-12.285 12.402 12.285zM27.814 31.056c0.421 0.401 0.97 0.596 1.517 0.588 0.549-0.008 1.093-0.219 1.506-0.635l0.031-0.031c0.39-0.408 0.58-0.937 0.575-1.459-0.008-0.523-0.213-1.046-0.617-1.444-4.498-4.496-8.921-9.145-13.365-13.703-0.013-0.018-0.029-0.036-0.044-0.055-0.424-0.403-0.978-0.601-1.527-0.593s-1.095 0.221-1.509 0.637c-4.41 4.553-8.804 9.124-13.208 13.685l-0.034 0.031c-0.401 0.398-0.604 0.918-0.611 1.441s0.182 1.048 0.575 1.459l0.039 0.039c0.411 0.408 0.952 0.619 1.499 0.627s1.098-0.19 1.522-0.593l11.77-12.274 11.882 12.28z"></path>
</symbol>
<symbol id="github" viewBox="0 0 32 32">
<path d="M14.533 2.8c-6.133 0.667-11.067 5.6-11.733 11.6-0.8 6.667 3.333 12.4 9.2 14.267v-3.067c0 0-0.533 0.133-1.2 0.133-1.867 0-2.667-1.6-2.8-2.533-0.133-0.533-0.4-0.933-0.8-1.333-0.4-0.133-0.533-0.133-0.533-0.267 0-0.267 0.4-0.267 0.533-0.267 0.8 0 1.467 0.933 1.733 1.333 0.667 1.067 1.467 1.333 1.867 1.333 0.533 0 0.933-0.133 1.2-0.267 0.133-0.933 0.533-1.867 1.333-2.4-3.067-0.667-5.333-2.4-5.333-5.333 0-1.467 0.667-2.933 1.6-4-0.133-0.267-0.267-0.933-0.267-1.867 0-0.533 0-1.333 0.4-2.133 0 0 1.867 0 3.733 1.733 0.667-0.267 1.6-0.4 2.533-0.4s1.867 0.133 2.667 0.4c1.733-1.733 3.733-1.733 3.733-1.733 0.267 0.8 0.267 1.6 0.267 2.133 0 1.067-0.133 1.6-0.267 1.867 0.933 1.067 1.6 2.4 1.6 4 0 2.933-2.267 4.667-5.333 5.333 0.8 0.667 1.333 1.867 1.333 3.067v4.4c5.467-1.733 9.333-6.8 9.333-12.667 0-8-6.8-14.267-14.8-13.333z"></path>
</symbol>
<symbol id="icon-heart-7039299" viewBox="0 0 35 32">
<path fill="#fecb00" style="fill: var(--color1, #fecb00)" d="M31.552 18.346c-0.116 0.002-0.233 0.010-0.35 0.009-0.359-0.002-0.716-0.015-1.073-0.038s-0.714-0.056-1.069-0.098c-0.355-0.042-0.709-0.093-1.062-0.152s-0.705-0.126-1.056-0.2c-0.351-0.074-0.701-0.156-1.049-0.243s-0.695-0.181-1.041-0.28c-0.346-0.099-0.69-0.203-1.033-0.311s-0.683-0.221-1.023-0.337c-0.679-0.232-1.356-0.479-2.032-0.732s-1.352-0.512-2.029-0.771c-0.676-0.259-1.353-0.518-2.031-0.769s-1.357-0.494-2.039-0.723c-0.341-0.114-0.683-0.224-1.025-0.33s-0.686-0.206-1.029-0.301c-0.344-0.095-0.688-0.185-1.034-0.269s-0.693-0.161-1.041-0.23c-0.348-0.069-0.697-0.132-1.047-0.185s-0.701-0.099-1.054-0.136c-0.353-0.036-0.706-0.063-1.062-0.080s-0.713-0.024-1.071-0.020c-0.369 0.004-0.738 0.021-1.106 0.050s-0.736 0.068-1.101 0.12c-0.365 0.052-0.729 0.116-1.091 0.191s-0.72 0.162-1.076 0.261c-0.356 0.098-0.708 0.207-1.057 0.328-0.076 0.026-0.15 0.059-0.226 0.087 1.409 4.55 5.199 9.262 11.973 15.042 2.432 2.075 4.557 3.773 4.721 3.773 0.802 0 7.029-5.31 10.192-8.691 1.587-1.697 2.926-3.356 4.022-4.963z"></path>
<path fill="#0068c2" style="fill: var(--color2, #0068c2)" d="M8.317 0c-1.596 0.014-3.153 0.372-4.323 1.107-3.022 1.898-4.040 3.954-3.993 8.060 0.015 1.341 0.226 2.673 0.643 4.018 0.076-0.027 0.15-0.061 0.226-0.087 0.349-0.121 0.701-0.23 1.057-0.328s0.714-0.185 1.076-0.261c0.361-0.075 0.725-0.139 1.091-0.191s0.733-0.092 1.101-0.12c0.368-0.028 0.737-0.045 1.106-0.050 0.359-0.004 0.716 0.003 1.071 0.020s0.709 0.044 1.062 0.080c0.353 0.036 0.704 0.082 1.054 0.136s0.699 0.116 1.047 0.185c0.348 0.069 0.695 0.147 1.041 0.23s0.69 0.173 1.034 0.269c0.344 0.095 0.687 0.195 1.029 0.301s0.684 0.216 1.025 0.33c0.682 0.228 1.361 0.472 2.039 0.723s1.355 0.51 2.031 0.769c0.676 0.259 1.352 0.518 2.029 0.771s1.354 0.5 2.032 0.732c0.339 0.116 0.68 0.229 1.023 0.337s0.687 0.213 1.033 0.311c0.346 0.099 0.693 0.193 1.041 0.28s0.698 0.169 1.049 0.243c0.351 0.074 0.703 0.141 1.056 0.2s0.707 0.11 1.062 0.152c0.355 0.042 0.712 0.075 1.069 0.098s0.715 0.036 1.073 0.038c0.116 0.001 0.233-0.007 0.35-0.009 4.505-6.612 4.829-12.352 0.748-16.262-1.387-1.329-2.477-1.762-4.955-1.967-3.873-0.321-6.375 0.808-8.269 3.732-1.509 2.329-1.992 2.52-2.48 0.982-0.189-0.595-1.14-1.845-2.115-2.778-1.415-1.356-3.831-2.072-6.163-2.052z"></path>
<path fill="#000" style="fill: var(--color3, #000)" opacity="0.217903" d="M21.689 27.451c7.613-8.093 10.49-13.114 10.5-18.323 0.007-4.137-1.26-6.453-4.332-7.913l-2.481-1.179 2.586 0.289c4.755 0.531 7.77 5.211 6.879 10.678-0.672 4.123-3.268 8.132-8.943 13.809-6.573 6.576-9.838 8.623-4.209 2.64zM14.238 5.404c-1.238-2.244-2.277-3.278-4.15-4.128-2.431-1.103-2.45-1.135-0.72-1.145 3.317-0.020 8.335 4.48 7.862 7.051-0.322 1.752-1.397 1.113-2.992-1.777z"></path>
<path fill="#fff" style="fill: var(--color4, #fff)" opacity="0.367623" d="M6.444 2.729c-0.727-0.004-1.504 0.456-2.448 1.4-2.635 2.375-1.052 11.816 0.124 5.816 0.217-0.989 1.66-2.366 2.594-3.057 2.161-1.598 2.531-2.17 1.392-3.308-0.561-0.561-1.096-0.847-1.662-0.851zM24.069 2.86c-1.031-0.007-2.121 0.773-2.858 2.198-1.161 2.245-0.507 2.359 1.193 2.359 0.797 0 1.571-0.651 2.486-1.445 1.544-1.341 1.594-1.515 0.692-2.432-0.449-0.456-0.973-0.676-1.514-0.68z"></path>
</symbol>
<symbol id="icon_ukraine_nation_country_love_heart" viewBox="0 0 32 32">
<path fill="#2a75e6" style="fill: var(--color5, #2a75e6)" d="M23.342 3c-0.003 0-0.006 0-0.009 0-3.204 0-5.976 1.846-7.312 4.532l-0.021 0.047c-1.357-2.733-4.13-4.579-7.333-4.579-0.003 0-0.006 0-0.010 0h0.001c-4.505 0-8.158 3.638-8.158 8.125 0 10.563 15.5 17.875 15.5 17.875s15.5-7.313 15.5-17.875c0-4.487-3.652-8.125-8.158-8.125z"></path>
<path fill="#f9d549" style="fill: var(--color6, #f9d549)" d="M1.595 16c3.534 7.871 14.405 13 14.405 13s10.871-5.129 14.405-13z"></path>
</symbol>
<symbol id="icon-sun" viewBox="0 0 24 24">
<path d="M18 12c0-1.657-0.673-3.158-1.757-4.243s-2.586-1.757-4.243-1.757-3.158 0.673-4.243 1.757-1.757 2.586-1.757 4.243 0.673 3.158 1.757 4.243 2.586 1.757 4.243 1.757 3.158-0.673 4.243-1.757 1.757-2.586 1.757-4.243zM16 12c0 1.105-0.447 2.103-1.172 2.828s-1.723 1.172-2.828 1.172-2.103-0.447-2.828-1.172-1.172-1.723-1.172-2.828 0.447-2.103 1.172-2.828 1.723-1.172 2.828-1.172 2.103 0.447 2.828 1.172 1.172 1.723 1.172 2.828zM11 1v2c0 0.552 0.448 1 1 1s1-0.448 1-1v-2c0-0.552-0.448-1-1-1s-1 0.448-1 1zM11 21v2c0 0.552 0.448 1 1 1s1-0.448 1-1v-2c0-0.552-0.448-1-1-1s-1 0.448-1 1zM3.513 4.927l1.42 1.42c0.391 0.391 1.024 0.391 1.414 0s0.391-1.024 0-1.414l-1.42-1.42c-0.391-0.391-1.024-0.391-1.414 0s-0.391 1.024 0 1.414zM17.653 19.067l1.42 1.42c0.391 0.391 1.024 0.391 1.414 0s0.391-1.024 0-1.414l-1.42-1.42c-0.391-0.391-1.024-0.391-1.414 0s-0.391 1.024 0 1.414zM1 13h2c0.552 0 1-0.448 1-1s-0.448-1-1-1h-2c-0.552 0-1 0.448-1 1s0.448 1 1 1zM21 13h2c0.552 0 1-0.448 1-1s-0.448-1-1-1h-2c-0.552 0-1 0.448-1 1s0.448 1 1 1zM4.927 20.487l1.42-1.42c0.391-0.391 0.391-1.024 0-1.414s-1.024-0.391-1.414 0l-1.42 1.42c-0.391 0.391-0.391 1.024 0 1.414s1.024 0.391 1.414 0zM19.067 6.347l1.42-1.42c0.391-0.391 0.391-1.024 0-1.414s-1.024-0.391-1.414 0l-1.42 1.42c-0.391 0.391-0.391 1.024 0 1.414s1.024 0.391 1.414 0z"></path>
</symbol>
<symbol id="icon-moon-fill" viewBox="0 0 32 32">
<path d="M24.633 22.184c-8.188 0-14.82-6.637-14.82-14.82 0-2.695 0.773-5.188 2.031-7.363-6.824 1.968-11.844 8.187-11.844 15.644 0 9.031 7.32 16.355 16.352 16.355 7.457 0 13.68-5.023 15.648-11.844-2.18 1.254-4.672 2.028-7.367 2.028z"></path>
</symbol>
<symbol id="icon-flunited-kingdom-svg-flag" viewBox="0 0 32 32">
<path fill="#00247d" style="fill: var(--color1, #00247d)" d="M0 8.052v3.503h5.003zM4.146 27.556h7.41v-5.188zM20.444 22.368v5.188h7.409zM0 20.444v3.503l5.004-3.503zM27.855 4.444h-7.411v5.188zM32 23.948v-3.504h-5.005zM32 11.556v-3.503l-5.004 3.503zM11.556 4.444h-7.41l7.41 5.188z"></path>
<path fill="#cf1b2b" style="fill: var(--color2, #cf1b2b)" d="M22.347 20.444l8.633 6.045c0.409-0.421 0.715-0.945 0.874-1.53l0.006-0.025-6.413-4.491h-3.1zM11.556 20.444h-1.903l-8.632 6.044c0.463 0.471 1.057 0.808 1.723 0.964l8.812-6.171v-0.838zM20.444 11.556h1.903l8.632-6.044c-0.458-0.464-1.042-0.803-1.698-0.96l-0.024-0.005-8.813 6.171v0.838zM9.652 11.556l-8.632-6.044c-0.409 0.422-0.715 0.946-0.875 1.53l-0.006 0.025 6.413 4.49h3.1z"></path>
<path fill="#eee" style="fill: var(--color3, #eee)" d="M32 18.667h-13.333v8.889h1.778v-5.188l7.409 5.188h0.591c0 0 0 0 0.001 0 0.993 0 1.89-0.408 2.534-1.065l0.001-0.001-8.633-6.045h3.1l6.413 4.491c0.083-0.3 0.14-0.61 0.14-0.935v-0.052l-5.005-3.504h5.005v-1.778zM0 18.667v1.778h5.004l-5.004 3.503v0.052c0 0.97 0.39 1.847 1.020 2.489l8.632-6.044h1.903v0.838l-8.812 6.17c0.261 0.062 0.532 0.103 0.812 0.103h0.59l7.41-5.188v5.188h1.778v-8.889h-13.333zM32 8c0-0.001 0-0.001 0-0.002 0-0.969-0.39-1.848-1.021-2.487l0 0-8.632 6.044h-1.903v-0.838l8.813-6.171c-0.243-0.062-0.523-0.099-0.811-0.102h-0.591l-7.411 5.188v-5.188h-1.778v8.889h13.333v-1.778h-5.004l5.004-3.503v-0.052zM11.556 4.444v5.188l-7.41-5.188h-0.59c-0 0-0.001 0-0.002 0-0.993 0-1.89 0.408-2.533 1.066l-0.001 0.001 8.632 6.044h-3.1l-6.413-4.49c-0.084 0.279-0.135 0.6-0.14 0.932l-0 0.003v0.052l5.003 3.503h-5.003v1.778h13.333v-8.889h-1.778z"></path>
<path fill="#cf1b2b" style="fill: var(--color2, #cf1b2b)" d="M18.667 13.333v-8.889h-5.333v8.889h-13.333v5.333h13.333v8.889h5.333v-8.889h13.333v-5.333z"></path>
</symbol>
<symbol id="icon-ukraine-svg-flag" viewBox="0 0 32 32">
<path fill="#005bbb" style="fill: var(--color4, #005bbb)" d="M28.444 4.444h-24.889c-1.964 0-3.556 1.592-3.556 3.556v0 8h32v-8c0-1.964-1.592-3.556-3.556-3.556v0z"></path>
<path fill="#ffd500" style="fill: var(--color5, #ffd500)" d="M32 24c0 1.964-1.592 3.556-3.556 3.556v0h-24.889c-1.964 0-3.556-1.592-3.556-3.556v0-8h32v8z"></path>
</symbol>
<symbol id="icon-united-kingdom-svg-flag-circle" viewBox="0 0 32 32">
<path fill="#2a5f9e" style="fill: var(--color6, #2a5f9e)" d="M11 30.15v-6.9l-5.15 3.8c1.45 1.35 3.2 2.4 5.15 3.1z"></path>
<path fill="#2a5f9e" style="fill: var(--color6, #2a5f9e)" d="M21 30.15c1.95-0.7 3.7-1.75 5.15-3.1l-5.15-3.85v6.95z"></path>
<path fill="#2a5f9e" style="fill: var(--color6, #2a5f9e)" d="M1.85 21c0.15 0.5 0.35 0.95 0.6 1.45l1.95-1.45h-2.55z"></path>
<path fill="#2a5f9e" style="fill: var(--color6, #2a5f9e)" d="M27.6 21l1.95 1.45c0.2-0.45 0.4-0.95 0.6-1.45h-2.55z"></path>
<path fill="#fff" style="fill: var(--color7, #fff)" d="M11.75 19h-10.45c0.15 0.7 0.35 1.35 0.55 2h2.55l-1.95 1.45c0.4 0.85 0.85 1.6 1.4 2.35l5.15-3.8h2v1l-5.85 4.3 0.7 0.7 5.15-3.75v6.9c0.65 0.25 1.3 0.4 2 0.55v-11.7h-1.25z"></path>
<path fill="#fff" style="fill: var(--color7, #fff)" d="M30.7 19h-11.7v11.7c0.7-0.15 1.35-0.35 2-0.55v-6.9l5.15 3.75c0.7-0.65 1.3-1.35 1.9-2.1l-5.35-3.9h3.4l3.050 2.25c0.15-0.25 0.3-0.55 0.4-0.8l-1.95-1.45h2.55c0.2-0.65 0.4-1.3 0.55-2z"></path>
<path fill="#ed4c5c" style="fill: var(--color8, #ed4c5c)" d="M3.85 24.8c0.4 0.55 0.8 1.050 1.25 1.55l5.9-4.3v-1h-2l-5.15 3.75z"></path>
<path fill="#ed4c5c" style="fill: var(--color8, #ed4c5c)" d="M22.75 21l5.35 3.9c0.2-0.25 0.35-0.5 0.55-0.75 0.050-0.050 0.050-0.1 0.1-0.1 0.15-0.25 0.35-0.55 0.5-0.8l-3.15-2.25h-3.35z"></path>
<path fill="#2a5f9e" style="fill: var(--color6, #2a5f9e)" d="M21 1.85v6.9l5.15-3.8c-1.45-1.35-3.2-2.4-5.15-3.1z"></path>
<path fill="#2a5f9e" style="fill: var(--color6, #2a5f9e)" d="M11 1.85c-1.95 0.7-3.7 1.75-5.15 3.1l5.15 3.85v-6.95z"></path>
<path fill="#2a5f9e" style="fill: var(--color6, #2a5f9e)" d="M30.15 11c-0.15-0.5-0.35-0.95-0.6-1.45l-1.95 1.45h2.55z"></path>
<path fill="#2a5f9e" style="fill: var(--color6, #2a5f9e)" d="M4.4 11l-1.95-1.45c-0.2 0.5-0.4 0.95-0.6 1.45h2.55z"></path>
<path fill="#fff" style="fill: var(--color7, #fff)" d="M20.25 13h10.4c-0.15-0.7-0.35-1.35-0.55-2h-2.55l1.95-1.45c-0.4-0.85-0.85-1.6-1.4-2.35l-5.1 3.8h-2v-1l5.85-4.3-0.7-0.7-5.15 3.75v-6.9c-0.65-0.25-1.3-0.4-2-0.55v11.7h1.25z"></path>
<path fill="#fff" style="fill: var(--color7, #fff)" d="M1.3 13h11.7v-11.7c-0.7 0.15-1.35 0.35-2 0.55v6.9l-5.15-3.75c-0.7 0.65-1.3 1.35-1.9 2.1l5.35 3.9h-3.4l-3.050-2.25c-0.15 0.25-0.3 0.55-0.4 0.8l1.95 1.45h-2.55c-0.2 0.65-0.4 1.3-0.55 2z"></path>
<path fill="#ed4c5c" style="fill: var(--color8, #ed4c5c)" d="M28.15 7.2c-0.4-0.55-0.8-1.050-1.25-1.55l-5.9 4.3v1h2l5.15-3.75z"></path>
<path fill="#ed4c5c" style="fill: var(--color8, #ed4c5c)" d="M9.25 11l-5.3-3.9c-0.2 0.25-0.35 0.5-0.55 0.75-0.050 0.050-0.050 0.1-0.1 0.1-0.15 0.25-0.35 0.55-0.5 0.8l3.050 2.25h3.4z"></path>
<path fill="#ed4c5c" style="fill: var(--color8, #ed4c5c)" d="M30.7 13h-11.7v-11.7c-0.95-0.2-1.95-0.3-3-0.3s-2.050 0.1-3 0.3v11.7h-11.7c-0.2 0.95-0.3 1.95-0.3 3s0.1 2.050 0.3 3h11.7v11.7c0.95 0.2 1.95 0.3 3 0.3s2.050-0.1 3-0.3v-11.7h11.7c0.2-0.95 0.3-1.95 0.3-3s-0.1-2.050-0.3-3z"></path>
</symbol>
<symbol id="icon-ukraine-svg-flag-circle" viewBox="0 0 32 32">
<path fill="#ffda44" style="fill: var(--color9, #ffda44)" d="M32 16c0 8.837-7.163 16-16 16s-16-7.163-16-16c0-8.837 7.163-16 16-16s16 7.163 16 16z"></path>
<path fill="#338af3" style="fill: var(--color10, #338af3)" d="M0 16c0-8.836 7.163-16 16-16s16 7.163 16 16z"></path>
</symbol>
<symbol id="icon-ukraine-flag" viewBox="0 0 46 32">
<path fill="#005bbb" style="fill: var(--color4, #005bbb)" d="M2.525 0h40.942c1.392 0 2.525 1.133 2.525 2.525v26.942c0 1.392-1.142 2.525-2.525 2.525h-40.942c-1.383 0.008-2.525-1.125-2.525-2.517v-26.95c0-1.392 1.142-2.525 2.525-2.525v0z"></path>
<path fill="#ffd500" style="fill: var(--color5, #ffd500)" d="M0 16h46v13.475c0 1.392-1.142 2.525-2.525 2.525h-40.95c-1.383 0-2.525-1.133-2.525-2.525v-13.475z"></path>
</symbol>
<symbol id="icon-phone" viewBox="0 0 32 32">
<path d="M22 20c-2 2-2 4-4 4s-4-2-6-4-4-4-4-6 2-2 4-4-4-8-6-8-6 6-6 6c0 4 4.109 12.109 8 16s12 8 16 8c0 0 6-4 6-6s-6-8-8-6z"></path>
</symbol>
<symbol id="icon-contacts-svg" viewBox="0 0 32 32">
<path fill="#ff7043" style="fill: var(--color1, #ff7043)" d="M25.333 29.333h-17.333v-26.667h17.333c1.467 0 2.667 1.2 2.667 2.667v21.333c0 1.467-1.2 2.667-2.667 2.667z"></path>
<path fill="#bf360c" style="fill: var(--color2, #bf360c)" d="M6.667 2.667h1.333v26.667h-1.333c-1.467 0-2.667-1.2-2.667-2.667v-21.333c0-1.467 1.2-2.667 2.667-2.667z"></path>
<path fill="#ab300b" style="fill: var(--color3, #ab300b)" d="M20 13.333c0 1.473-1.194 2.667-2.667 2.667s-2.667-1.194-2.667-2.667c0-1.473 1.194-2.667 2.667-2.667s2.667 1.194 2.667 2.667z"></path>
<path fill="#ab300b" style="fill: var(--color3, #ab300b)" d="M22 20c0 0-1.267-2.667-4.667-2.667s-4.667 2.667-4.667 2.667v1.333h9.333v-1.333z"></path>
</symbol>
<symbol id="icon-contacts-svg-black" viewBox="0 0 32 32">
<path stroke-linejoin="round" stroke-linecap="round" stroke-miterlimit="4" stroke-width="1.5238" d="M19.048 12.952c0 1.683-1.364 3.048-3.048 3.048s-3.048-1.364-3.048-3.048c0-1.683 1.364-3.048 3.048-3.048s3.048 1.364 3.048 3.048z"></path>
<path stroke-linejoin="round" stroke-linecap="round" stroke-miterlimit="4" stroke-width="1.5238" d="M5.333 9.905h1.524v-1.524c0-1.683 1.364-3.048 3.048-3.048h12.19c1.683 0 3.048 1.364 3.048 3.048v15.238c0 1.683-1.364 3.048-3.048 3.048h-12.19c-1.683 0-3.048-1.364-3.048-3.048v-1.524h-1.524"></path>
<path stroke-linejoin="round" stroke-linecap="round" stroke-miterlimit="4" stroke-width="1.5238" d="M5.333 16h1.524"></path>
<path stroke-linejoin="round" stroke-linecap="round" stroke-miterlimit="4" stroke-width="1.5238" d="M5.333 12.952h1.524"></path>
<path stroke-linejoin="round" stroke-linecap="round" stroke-miterlimit="4" stroke-width="1.5238" d="M5.333 19.048h1.524"></path>
<path stroke-linejoin="round" stroke-linecap="round" stroke-miterlimit="4" stroke-width="1.5238" d="M20.571 20.571v-1.524c0-1.683-1.364-3.048-3.048-3.048h-3.048c-1.683 0-3.048 1.364-3.048 3.048v1.524c0 0.842 0.682 1.524 1.524 1.524h6.095c0.842 0 1.524-0.682 1.524-1.524z"></path>
</symbol>
<symbol id="icon-arrow-top-1-svg" viewBox="0 0 32 32">
<path fill="" style="" d="M23.374 20.040c-0.391 0.391-1.024 0.391-1.414 0l-5.96-5.959-5.96 5.959c-0.391 0.391-1.024 0.391-1.414 0s-0.391-1.024 0-1.414l6.667-6.667c0.187-0.188 0.442-0.293 0.707-0.293s0.52 0.105 0.707 0.293l6.667 6.667c0.391 0.391 0.391 1.024 0 1.414z"></path>
</symbol>
<symbol id="icon-arrow-right-3-svg" viewBox="0 0 32 32">
<path fill="" style="" d="M27.542 19.96c0.611-2.605 0.611-5.316 0-7.921-0.882-3.762-3.82-6.699-7.581-7.581-2.605-0.611-5.316-0.611-7.921 0-3.762 0.882-6.699 3.82-7.581 7.581-0.611 2.605-0.611 5.316 0 7.921 0.882 3.762 3.82 6.699 7.581 7.581 2.605 0.611 5.316 0.611 7.921 0 3.762-0.882 6.699-3.82 7.581-7.581zM16.735 12.268c0.299-0.299 0.784-0.299 1.083 0l3.191 3.191c0.144 0.144 0.224 0.338 0.224 0.542s-0.081 0.398-0.224 0.541l-3.191 3.191c-0.299 0.299-0.784 0.299-1.083 0s-0.299-0.784 0-1.083l1.884-1.884h-7.086c-0.423 0-0.766-0.343-0.766-0.766s0.343-0.766 0.766-0.766h7.086l-1.884-1.884c-0.299-0.299-0.299-0.784 0-1.083z"></path>
</symbol>
<symbol id="icon-close-btn-svg" viewBox="0 0 32 32">
<path fill="" style="" d="M12.040 4.458c2.605-0.611 5.316-0.611 7.921 0 3.762 0.882 6.699 3.82 7.581 7.581 0.611 2.605 0.611 5.316 0 7.921-0.882 3.762-3.82 6.699-7.581 7.581-2.605 0.611-5.316 0.611-7.921 0-3.762-0.882-6.699-3.82-7.581-7.581-0.611-2.605-0.611-5.316 0-7.921 0.882-3.762 3.82-6.699 7.581-7.581zM14.285 13.202c-0.299-0.299-0.784-0.299-1.083 0s-0.299 0.784 0 1.083l1.715 1.715-1.715 1.715c-0.299 0.299-0.299 0.784 0 1.083s0.784 0.299 1.083 0l1.715-1.715 1.715 1.715c0.299 0.299 0.784 0.299 1.083 0s0.299-0.784 0-1.083l-1.715-1.715 1.715-1.715c0.299-0.299 0.299-0.784 0-1.083s-0.784-0.299-1.083 0l-1.715 1.715-1.715-1.715z"></path>
</symbol>
<symbol id="icon-more-svg" viewBox="0 0 32 32">
<path fill="#363853" style="fill: var(--color1, #363853)" d="M6.667 13.333c-1.467 0-2.667 1.2-2.667 2.667s1.2 2.667 2.667 2.667c1.467 0 2.667-1.2 2.667-2.667s-1.2-2.667-2.667-2.667z"></path>
<path fill="#363853" style="fill: var(--color1, #363853)" d="M25.333 13.333c-1.467 0-2.667 1.2-2.667 2.667s1.2 2.667 2.667 2.667c1.467 0 2.667-1.2 2.667-2.667s-1.2-2.667-2.667-2.667z"></path>
<path fill="#363853" style="fill: var(--color1, #363853)" d="M16 13.333c-1.467 0-2.667 1.2-2.667 2.667s1.2 2.667 2.667 2.667c1.467 0 2.667-1.2 2.667-2.667s-1.2-2.667-2.667-2.667z"></path>
</symbol>
</defs>
</svg>
